<?xml version="1.0" encoding="utf-8"?>
<!-- Generator: Adobe Illustrator 26.0.3, SVG Export Plug-In . SVG Version: 6.00 Build 0)  -->
<svg version="1.0" id="katman_1" xmlns="http://www.w3.org/2000/svg" xmlns:xlink="http://www.w3.org/1999/xlink" x="0px" y="0px"
	 viewBox="0 0 1000 800" style="enable-background:new 0 0 1000 800;" xml:space="preserve">
<g transform="translate(0.000000,800.000000) scale(0.100000,-0.100000)">
	<path d="M4671,7704c-12-15-21-34-21-43s18-90,40-181s40-173,40-183c0-32,30-77,55-83c32-8,75,19,75,48c0,11-10,36-22,56
		c-14,23-21,50-20,81c1,56-32,223-54,272c-9,20-27,42-40,48C4692,7733,4695,7734,4671,7704z"/>
	<path d="M5883,7615c-12-8-24-30-28-48c-12-56-49-108-204-282c-151-171-168-199-135-226c27-23,70,13,284,234
		c177,184,200,211,200,241c0,33-23,62-67,85C5906,7633,5909,7633,5883,7615z"/>
	<path d="M3517,7443c-4-3-7-23-7-44c0-36,7-44,118-145c137-124,302-251,338-260c38-10,74,10,74,41c0,20-28,47-147,142
		c-82,64-185,152-229,195c-64,61-88,78-111,78C3537,7450,3520,7447,3517,7443z"/>
	<path d="M4914,6652c-132-86-235-234-270-388c-22-101-16-259,13-324c52-118,184-151,403-100c101,23,137,43,110,60
		c-30,19-96,22-199,10c-59-7-124-10-145-6c-83,16-123,95-113,226c15,193,116,358,276,450c62,36,71,52,51,91
		C5023,6701,4980,6694,4914,6652z"/>
	<path d="M4769,5545c-37-20-39-32-27-132c9-72,7-138-11-367l-22-279l25-26l26-25l21,20c21,22,23,34,49,354c13,165,30,289,42,313
		c5,9,15,17,22,17c23,0,73-90,105-186c37-113,41-140,21-135c-34,10-98,5-113-8c-22-18-21-54,2-75c10-9,57-24,105-33l87-17l45,24
		c55,30,62,40,40,52c-62,35-84,68-122,186c-46,145-92,238-142,291c-34,36-44,41-83,41C4815,5559,4783,5553,4769,5545z"/>
	<path d="M3372,4524c-39-18-31-108,14-143c25-19,25-19,94,5c38,13,90,24,114,24h44l30-72c17-40,58-129,91-198c34-69,61-138,61-153
		c0-38-46-84-94-92c-29-6-48-1-93,20c-54,27-57,27-70,10c-7-11-13-33-13-51c0-26,8-39,37-61c31-24,46-28,97-27c111,1,236,85,236,158
		c0,38-28,124-99,297c-28,69-51,130-51,136s17,7,48,2c26-4,71-8,99-8c46-1,55,2,69,25c16,24,16,26-2,44c-22,21-198,53-384,70
		c-63,5-137,12-165,15C3408,4527,3379,4527,3372,4524z"/>
	<path d="M5760,4488c-25-41-25-55,1-126c52-142,79-293,79-443c0-62,4-81,21-103c26-33,53-33,85-1l25,25l-21,35l-22,35h26
		c13,0,82-12,153-26c245-50,443-82,449-72c7,12,22,3-136,77c-89,42-175,73-255,94c-66,16-127,36-135,43c-26,25,18,62,175,150
		c158,88,185,110,185,152c0,25-44,82-63,82c-6,0-31-22-56-50c-48-52-340-236-351-222c-4,4-21,75-39,157c-36,165-45,191-78,212
		C5782,4521,5780,4520,5760,4488z"/>
	<path d="M4320,4421c-15-29-12-93,6-137c26-62,23-126-9-167c-44-58-50-83-36-157c15-82,40-150,57-150c6,0,29,18,51,40
		c21,22,43,40,47,40c5,0,20-9,34-20c54-42,90-15,90,66c0,47,12,68,55,93c47,28,44,48-10,71c-47,20-75,62-75,111c0,27-38,94-97,172
		c-36,46-50,57-73,57C4341,4440,4327,4433,4320,4421z"/>
	<path d="M4825,4388c-25-29-60-82-78-118c-29-58-32-75-35-171c-3-92-1-113,18-158c31-70,84-116,154-132c51-11,64-10,153,14
		c54,14,117,28,140,32c22,4,48,12,57,18c15,11,15,14,1,35c-20,28-51,28-188,2c-82-16-111-18-133-9c-92,34-148,173-113,280
		c16,49,42,69,84,62c19-3,46-2,61,1c25,7,26,10,21,49c-12,83-27,116-57,132c-16,8-31,15-34,15C4874,4440,4851,4416,4825,4388z"/>
	<path d="M4841,3586c-12-18-21-40-21-48c0-9,15-63,34-120c19-58,40-133,47-167c13-59,12-64-6-77c-11-8-43-14-77-14c-49,0-63-4-83-25
		c-32-31-31-39,3-65c24-20,35-22,96-17c101,9,103,7,111-120c7-101,27-183,45-183c4,0,16,12,25,27c15,23,17,42,12,135
		c-5,102-4,110,16,132c12,13,41,28,64,35c53,15,92,45,77,61c-6,6-43,14-83,17c-39,3-78,11-86,17c-10,7-20,51-31,131
		c-19,152-40,253-55,272c-7,8-25,21-40,29C4862,3619,4861,3619,4841,3586z"/>
	<path d="M5093,2378c-5-7-15-58-21-113c-17-136-50-295-68-322c-8-13-26-30-40-40c-24-15-29-15-52-2c-15,8-37,30-49,48
		c-19,29-22,42-17,83c9,67-11,137-44,149c-34,13-48,6-68-33c-13-26-16-49-11-119c3-47,12-101,20-120c36-86,113-138,202-139
		c65,0,109,29,154,104c52,86,72,171,78,326c5,128,4,136-17,163C5137,2392,5109,2398,5093,2378z"/>
	<path d="M5036,1575c-49-17-132-97-157-150c-24-51-24-128,0-180c11-25,52-72,106-120c156-142,294-278,322-317c32-48,35-94,5-118
		c-12-10-81-37-154-60c-153-49-245-60-350-40c-61,12-71,11-84-2c-22-22-10-53,32-79c32-19,45-21,152-17c96,4,145,12,272,46
		c235,63,280,90,280,164c0,46-58,162-111,225c-24,28-91,92-149,141c-116,98-194,178-211,216c-6,13-9,37-5,51c6,23,11,26,29,20
		c12-4,39-9,60-12c35-5,38-3,53,32c35,84,27,182-17,205C5087,1592,5084,1592,5036,1575z"/>
</g>
</svg>
